<?xml version="1.0" standalone="no"?>
<!DOCTYPE svg PUBLIC "-//W3C//DTD SVG 20010904//EN"
 "http://www.w3.org/TR/2001/REC-SVG-20010904/DTD/svg10.dtd">
<svg version="1.0" xmlns="http://www.w3.org/2000/svg"
 width="1666.000000pt" height="1666.000000pt" viewBox="0 0 1666.000000 1666.000000"
 preserveAspectRatio="xMidYMid meet">
<metadata>
Created by potrace 1.14, written by Peter Selinger 2001-2017
</metadata>
<g transform="translate(0.000000,1666.000000) scale(0.100000,-0.100000)"
fill="#000000" stroke="none">
<path d="M11660 14164 c-717 -42 -1510 -259 -2340 -641 -194 -89 -546 -270
-590 -303 -20 -15 -17 -18 73 -77 463 -303 1056 -862 1445 -1362 734 -943
1182 -2020 1326 -3191 99 -803 129 -1949 76 -2900 -58 -1048 -220 -2235 -416
-3052 -20 -82 -34 -151 -32 -154 10 -10 424 674 703 1161 851 1485 1462 2802
1765 3802 198 653 389 1648 455 2373 47 524 49 1128 4 1555 -92 878 -342 1578
-756 2110 -181 233 -422 444 -618 542 -90 46 -328 98 -557 122 -106 12 -436
21 -538 15z"/>
<path d="M3680 14049 c-227 -10 -272 -18 -369 -64 -527 -253 -815 -1198 -795
-2605 5 -324 23 -726 35 -757 7 -18 16 -23 43 -23 91 0 624 -76 951 -136 1562
-286 2958 -802 4059 -1501 648 -411 1177 -832 1681 -1337 642 -643 1097 -1296
1403 -2012 122 -284 234 -660 264 -881 7 -51 16 -93 20 -93 4 0 8 3 8 6 0 3
16 83 35 177 242 1173 253 2544 30 3722 -228 1203 -689 2270 -1371 3175 -341
452 -729 821 -1199 1142 -989 676 -2339 1086 -3870 1178 -247 14 -700 19 -925
9z"/>
<path d="M2560 10129 c1 -149 77 -759 146 -1174 373 -2244 1285 -4485 2345
-5760 89 -107 380 -405 395 -405 6 0 11 35 12 78 4 120 30 378 58 582 109 792
332 1567 643 2240 352 760 885 1485 1667 2268 l253 253 -37 23 c-176 110 -647
376 -907 511 -82 43 -195 101 -250 130 -487 254 -1286 601 -1725 748 -663 223
-1439 392 -2210 481 -318 37 -390 42 -390 25z"/>
</g>
</svg>
